<svg xmlns="http://www.w3.org/2000/svg" width="32" height="32" viewBox="0 0 8.467 8.467"><path d="M0 0h8.467v8.467H0z" style="fill:#fff"/><path d="M2.606 2.453q.084.208.158.41.079.203.158.415.04.09.074.119.034.03.099.03h.163l-.04.246-.04.247q0 .025-.02.04-.019.015-.044.015h-.133q-.158 0-.262-.03-.103-.035-.173-.109-.069-.079-.118-.212l-.188-.509q-.089-.257-.183-.509ZM1.109.507h1.339q.276 0 .474.07.202.069.32.207.124.133.164.326.044.188.005.435l-.045.266q-.04.228-.128.4-.09.168-.232.287-.144.113-.341.173-.193.054-.445.054h-.656l-.055.03.084-.544h.627q.154 0 .262-.044.109-.045.173-.138.064-.1.089-.242l.05-.292q.02-.118 0-.202-.015-.09-.07-.143-.05-.05-.128-.075-.074-.024-.188-.024H1.075q-.025 0-.035-.015-.01-.015-.01-.04l.04-.247.04-.242zm.316 3.458H.867q-.025 0-.04-.015-.01-.015-.004-.04l.123-.78q.064-.38.124-.756l.118-.76.129-.786h.666l-.074.124q-.024.173-.054.346l-.05.33-.098.608q-.05.296-.099.603l-.104.637q-.024.133-.044.257-.015.123-.035.232zM4.263.507h.534q.02 0 .03.01.014.005.02.02.009.015.004.04.005.103.005.306 0 .197-.01.474-.005.272-.02.607-.01.331-.034.707-.02.37-.045.77l-.103-.123h.3l-.137.118q.093-.301.202-.637l.232-.681q.124-.346.247-.682.124-.34.232-.647h.548q.015 0 .025.005.015.005.02.015.005.01.005.03.015.167.025.41.014.236.024.518.01.276.015.573.01.291.015.573.005.281.005.523l-.099-.118h.306l-.148.113q.099-.4.188-.73.089-.337.168-.623.084-.286.163-.543l.153-.514.153-.514h.538q.02 0 .03.01.015.005.02.025.005.015 0 .035-.045.118-.119.335l-.163.504q-.089.287-.197.613l-.213.666-.212.667q-.104.326-.198.613h-.706q-.025 0-.04-.015-.014-.015-.014-.055-.015-.187-.03-.449-.015-.267-.03-.588-.01-.326-.014-.686 0-.366.005-.746l.113.163H5.74l.163-.163q-.089.311-.188.622-.098.311-.197.608-.099.291-.188.543-.089.252-.163.45-.074.192-.118.316h-.731q-.03 0-.045-.015-.01-.015-.01-.055-.015-.113-.02-.34V3.03q0-.306.005-.652l.01-.706q.005-.36.005-.696.005-.119 0-.237V.507zM2.26 5.924l.316.672q.158.336.311.667.05.099.094.128.044.03.158.03h.153q-.01.064-.025.143-.01.08-.024.153-.01.074-.02.129-.005.049-.01.064 0 .025-.02.04-.02.01-.044.01h-.168q-.153 0-.257-.025-.104-.03-.183-.114-.079-.089-.163-.252l-.128-.267q-.054-.113-.094-.212-.034-.099-.064-.198-.03-.098-.054-.222h-.267Zm1.437-1.432q.015 0 .02.005.01.005.015.015.005.005.005.015 0 .015-.015.034-.01.02-.06.08l-.157.177-.267.311q-.143.173-.311.37l-.356.42-.38.46q-.198.232-.405.479-.208.242-.42.494l.143-1.077h.213q.049-.104.103-.193.055-.093.114-.182.06-.094.128-.183.074-.094.153-.198.149-.182.292-.36l.276-.346.247-.32Zm-2.395 0h.558q.025 0 .04.015.014.01.01.04l-.139.849q-.064.425-.138.854l-.139.85q-.064.425-.133.85H.803q-.025 0-.04-.015-.01-.02-.004-.04l.148-.958q.079-.484.153-.963l.158-.963.04-.262q.02-.128.044-.257Zm3.377 0q.025 0 .04.01.014.005.02.03.009.024.009.074.044.37.079.736.035.365.064.735.03.366.055.741.024.37.04.756l-.12-.123h.326l-.162.123q.128-.306.246-.608l.247-.597q.124-.296.247-.598l.252-.622.262-.657h.558q.02 0 .03.01.01.005.01.025.005.015-.005.034-.05.124-.148.356l-.218.528-.262.632q-.138.336-.281.677-.138.34-.272.652-.133.311-.242.553H4.56q-.054 0-.074-.02-.02-.02-.03-.103-.02-.158-.044-.39l-.044-.51q-.025-.28-.055-.587l-.049-.612q-.025-.307-.054-.598-.01-.109-.025-.212l-.03-.218q-.01-.108-.024-.217h.548zM7.658 5.84q.009 0 .012.003.005 0 .008.006.006.003.006.008.003.006.003.014.022.271.045.582l.045.654q.025.342.05.717H6.343q-.011 0-.017-.008-.008-.009-.003-.026l.237-.618q.11-.29.206-.536l.175-.446.142-.35h.575zm-.885 1.663h.694l-.028-.345q-.011-.172-.025-.344-.012-.172-.026-.342l-.028-.344.037.034h-.138l.062-.031q-.068.17-.139.341l-.135.345-.138.344-.136.342Z"/></svg>