<?xml version="1.0" encoding="UTF-8" standalone="no"?>
<!-- Created with Inkscape (http://www.inkscape.org/) -->

<svg
   width="32"
   height="32"
   viewBox="0 0 8.4666661 8.4666666"
   version="1.1"
   id="svg5"
   xmlns="http://www.w3.org/2000/svg"
   xmlns:svg="http://www.w3.org/2000/svg">
  <defs
     id="defs2" />
  <g
     id="layer2">
    <rect
       style="font-variation-settings:'MONO' 1, 'slnt' -9, 'wght' 600;fill:#ffffff;stroke-width:0.869;stroke-linecap:round;stroke-linejoin:round;paint-order:stroke markers fill"
       id="rect314"
       width="8.4666662"
       height="8.4666662"
       x="0"
       y="0" />
  </g>
  <g
     id="layer1"
     transform="translate(-0.08658095)">
    <path
       d="m 2.6926692,2.4533784 q 0.083961,0.2074334 0.1580445,0.4099279 0.079022,0.2024945 0.1580444,0.4148668 0.039511,0.0889 0.074083,0.1185333 0.034572,0.029633 0.098778,0.029633 0.024694,0 0.039511,0 0.019756,0 0.039511,0 h 0.083961 q -0.019756,0.1284111 -0.039511,0.2469445 -0.019756,0.1185333 -0.039511,0.2469445 0,0.024694 -0.019756,0.039511 -0.019756,0.014817 -0.04445,0.014817 -0.024694,0 -0.064206,0 -0.034572,0 -0.069144,0 -0.1580445,0 -0.2617612,-0.029633 Q 2.702547,3.910351 2.6334025,3.8362676 2.564258,3.7572454 2.5148692,3.6238954 2.4210302,3.3670731 2.3271914,3.1151897 2.2382913,2.8583674 2.1444524,2.606484 Z M 1.1961855,0.50745578 q 0.3358445,0 0.6667502,0 0.3358445,0 0.671689,0 0.2765779,0 0.4741334,0.0691445 0.2024945,0.0691445 0.3210278,0.20743338 0.1234723,0.13335003 0.1629834,0.32596674 0.04445,0.1876778 0.00494,0.4346223 l -0.04445,0.2667 q -0.039511,0.227189 -0.1284112,0.4000501 -0.0889,0.1679223 -0.2321277,0.2864556 -0.1432278,0.1135945 -0.3407834,0.1728612 -0.1926167,0.054328 -0.4445001,0.054328 -0.1629834,0 -0.3309056,0 -0.1629834,0 -0.3259668,0 l -0.054328,0.029633 0.083961,-0.5432779 q 0.1580444,0 0.31115,0 0.1580445,0 0.316089,0 0.1531056,0 0.2617612,-0.04445 0.1086556,-0.04445 0.1728611,-0.1382889 0.064206,-0.098778 0.0889,-0.2420056 l 0.049389,-0.2913945 q 0.019756,-0.1185334 0,-0.2024945 -0.014817,-0.0889 -0.069144,-0.1432278 -0.049389,-0.049389 -0.1284112,-0.074083 -0.074083,-0.024694 -0.1876778,-0.024694 -0.22225,0 -0.4445001,0 -0.22225,0 -0.4445001,0 -0.2173111,0 -0.4445001,0 -0.024694,0 -0.034572,-0.014817 -0.00988,-0.014817 -0.00988,-0.0395111 0.019756,-0.12841114 0.039511,-0.2469445 0.019756,-0.11853336 0.039511,-0.24200561 z m 0.316089,3.45722302 q -0.1432279,0 -0.2765779,0 -0.13335,0 -0.28151675,0 -0.024695,0 -0.039511,-0.014817 -0.00988,-0.014817 -0.00494,-0.039511 Q 0.97393545,3.5103009 1.0332021,3.1300064 1.0974077,2.7497118 1.1566743,2.3743562 1.215941,1.9940617 1.2752078,1.6137671 1.3394133,1.2285337 1.4036188,0.82848363 H 2.0703691 L 1.9962856,0.95195588 Q 1.9715912,1.124817 1.9419579,1.2976782 1.9172634,1.4656004 1.8925689,1.6285838 1.84318,1.934795 1.7937911,2.2360673 1.7444022,2.5324007 1.6950133,2.8386118 1.6456244,3.144823 1.5912967,3.4757287 q -0.024695,0.13335 -0.04445,0.2568222 -0.014817,0.1234723 -0.034572,0.2321279 z"
       style="font-size:4.93889px;line-height:0.8;font-family:Recursive;-inkscape-font-specification:'Recursive, @MONO=0.47,slnt=-9.0,wght=600';font-variation-settings:'MONO' 0.47, 'slnt' -9, 'wght' 600;stroke-width:0.264583"
       id="path952" />
    <path
       d="m 4.35029,0.50745578 q 0.083961,0 0.1728612,0 0.093839,0 0.1827389,0 0.093839,0 0.1778001,0 0.019756,0 0.029633,0.009878 0.014817,0.004939 0.019756,0.0197556 0.00988,0.0148167 0.00494,0.0395111 0.00494,0.10371669 0.00494,0.30621118 0,0.19755554 -0.00988,0.47413344 -0.00494,0.2716389 -0.019756,0.6074834 -0.00988,0.3309057 -0.034572,0.7062613 -0.019755,0.3704167 -0.04445,0.7704668 L 4.7305845,3.3176842 H 5.0318569 L 4.8935679,3.4362175 Q 4.9874068,3.1349452 5.0960624,2.7991007 5.2096568,2.4632562 5.3281903,2.1175339 5.4516625,1.7718116 5.5751347,1.4359671 5.698607,1.0951837 5.8072626,0.78897251 h 0.5482167 q 0.014817,0 0.024695,0.004939 0.014817,0.004939 0.019755,0.0148167 0.00494,0.009878 0.00494,0.0296333 0.014817,0.16792229 0.024694,0.40992789 0.014817,0.2370667 0.024694,0.5185834 0.00988,0.2765779 0.014817,0.5729113 0.00988,0.2913945 0.014817,0.5729112 0.00494,0.2815167 0.00494,0.5235223 L 6.3900516,3.3176842 H 6.6962628 L 6.548096,3.4312786 Q 6.646874,3.0312286 6.735774,2.7003229 6.824674,2.3644784 6.9036961,2.0780228 6.9876571,1.7915672 7.0666795,1.5347449 7.1457015,1.2729837 7.2197851,1.0211003 7.2938681,0.76921695 7.3728907,0.50745578 q 0.0889,0 0.1778,0 0.0889,0 0.1827389,0 0.093839,0 0.1778002,0 0.019755,0 0.029633,0.009878 0.014817,0.004939 0.019756,0.0246945 0.00494,0.0148167 0,0.0345722 Q 7.9161686,0.6951336 7.8420852,0.91244476 7.7729407,1.1297559 7.6791019,1.4162115 7.5902018,1.7026672 7.4815462,2.0286339 7.3778297,2.3546006 7.269174,2.695384 7.1605184,3.0361674 7.0568017,3.3621342 6.9530851,3.6881009 6.8592462,3.9745565 q -0.074083,0 -0.1679224,0 -0.093839,0 -0.1926167,0 -0.093839,0 -0.1827389,0 -0.0889,0 -0.1629834,0 -0.024694,0 -0.039511,-0.014817 Q 6.098657,3.9449232 6.098657,3.9054121 6.0838404,3.7177343 6.0690237,3.4559731 6.0542071,3.189273 6.0393905,2.8682452 6.0295126,2.5422785 6.0245737,2.1817395 q 0,-0.3654779 0.00494,-0.7457724 L 6.1431072,1.5989505 H 5.8270182 L 5.9900016,1.4359671 Q 5.9011015,1.7471172 5.8023236,2.0582672 5.7035457,2.3694173 5.6047681,2.6657507 5.50599,2.9571452 5.4170902,3.2090286 5.3281903,3.460912 5.254107,3.6584676 5.180024,3.8510843 5.1355735,3.9745565 q -0.1135944,0 -0.2469444,0 -0.1284111,0 -0.2568223,0 -0.1284111,0 -0.2271889,0 -0.029633,0 -0.04445,-0.014817 -0.00988,-0.014817 -0.00988,-0.054328 -0.014817,-0.1135945 -0.019756,-0.3407834 0,-0.227189 0,-0.5334001 0,-0.3062112 0.00494,-0.6519335 0.00494,-0.3506612 0.00988,-0.7062613 0.00494,-0.360539 0.00494,-0.69638347 0.00494,-0.11853336 0,-0.23706672 0,-0.12347225 0,-0.23212783 z"
       style="font-size:4.93889px;line-height:0.8;font-family:Recursive;-inkscape-font-specification:'Recursive, @MONO=0.47,slnt=-9.0,wght=600';font-variation-settings:'MONO' 0.47, 'slnt' -9, 'wght' 600;stroke-width:0.264583"
       id="path954" />
    <path
       d="m 2.3469469,5.9243883 q 0.1580445,0.3358445 0.316089,0.671689 0.1580444,0.3358446 0.31115,0.6667502 0.049389,0.098778 0.093839,0.1284111 0.04445,0.029633 0.1580444,0.029633 0.029633,0 0.049389,0 0.019756,0 0.039511,0 h 0.064205 q -0.00988,0.064205 -0.024694,0.1432278 -0.00988,0.079022 -0.024694,0.1531056 -0.00988,0.074083 -0.019756,0.1284111 -0.00494,0.049389 -0.00988,0.064206 0,0.024694 -0.019756,0.039511 -0.019756,0.00988 -0.04445,0.00988 -0.014817,0 -0.039511,0 -0.019756,0 -0.049389,0 -0.029633,0 -0.079022,0 -0.1531056,0 -0.2568223,-0.024694 Q 2.7074859,7.9048832 2.6284637,7.8209221 2.5494414,7.732022 2.4654803,7.5690387 2.3913969,7.4159331 2.3370691,7.3023386 2.2827413,7.1887441 2.2432302,7.0899663 2.208658,6.9911885 2.1790247,6.8924107 2.1493913,6.7936329 2.1246968,6.6701607 H 1.8579967 Z m 1.437217,-1.4322781 q 0.014817,0 0.019756,0.00494 0.00988,0.00494 0.014817,0.014817 0.00494,0.00494 0.00494,0.014817 0,0.014817 -0.014817,0.034572 -0.00988,0.019755 -0.059267,0.079022 -0.049389,0.054328 -0.1580445,0.1778 Q 3.4730137,4.9563659 3.324847,5.129227 3.1816192,5.3020882 3.013697,5.4996438 2.8457748,5.6971994 2.658097,5.9194494 2.4753581,6.1416995 2.2778024,6.3787662 2.0802469,6.610894 1.8728134,6.8578385 1.66538,7.0998441 1.4530077,7.3517275 L 1.5962355,6.2750495 H 1.8086078 Q 1.8579967,6.1713328 1.9123245,6.0824328 1.9666523,5.9885939 2.0259191,5.8996939 2.0851858,5.8058549 2.1543301,5.7169549 2.2284136,5.623116 2.3074357,5.5193993 2.4556024,5.3366604 2.5988302,5.1588604 2.742058,4.9810603 2.8754082,4.8131381 3.0087581,4.6402769 3.1223526,4.4921102 Z m -2.3953617,0 q 0.1481667,0 0.2815167,0 0.1333501,0 0.2765779,0 0.024694,0 0.039511,0.014817 0.014817,0.00988 0.00988,0.039511 -0.069144,0.4247445 -0.138289,0.8494891 -0.064206,0.4247445 -0.1382889,0.8544279 -0.069145,0.4247446 -0.1382889,0.8494891 -0.064206,0.4247446 -0.13335,0.8494891 -0.1432279,0 -0.2815168,0 -0.13335,0 -0.27657775,0 -0.024694,0 -0.039511,-0.014817 -0.00988,-0.019755 -0.00494,-0.039511 Q 0.91960765,7.4159331 0.99369105,6.9368607 1.0727132,6.4528495 1.1467966,5.9737772 1.2258188,5.489766 1.304841,5.0106937 1.3245966,4.8773436 1.3443522,4.7489325 1.3641077,4.6205213 1.3888022,4.4921102 Z"
       style="font-size:4.93889px;line-height:0.8;font-family:Recursive;-inkscape-font-specification:'Recursive, @MONO=0.47,slnt=-9.0,wght=600';font-variation-settings:'MONO' 0.47, 'slnt' -9, 'wght' 600;stroke-width:0.264583"
       id="path956" />
    <path
       d="m 4.7658455,4.4921102 q 0.024694,0 0.039511,0.00988 0.014817,0.00494 0.019756,0.029633 0.0099,0.024694 0.0099,0.074083 0.04445,0.3704167 0.07902,0.7358946 0.03457,0.3654778 0.06421,0.7358946 0.02963,0.3654779 0.05433,0.7408335 0.02469,0.3704167 0.03951,0.7556502 L 4.9535235,7.4505053 h 0.325967 L 5.1165064,7.5739776 Q 5.2449175,7.2677664 5.3634514,6.9664941 5.4869235,6.6652218 5.6103955,6.3688884 5.7338674,6.072555 5.8573405,5.7712827 5.9808124,5.4650715 6.1092234,5.1489826 q 0.128411,-0.3210279 0.261761,-0.6568724 0.138289,0 0.2815171,0 0.1432279,0 0.2765779,0 0.01976,0 0.02963,0.00988 0.0099,0.00494 0.0099,0.024694 0.0049,0.014817 -0.0049,0.034572 -0.04939,0.1234722 -0.1481669,0.3556 -0.09384,0.2271875 -0.217312,0.5284598 -0.1234721,0.2963334 -0.2617611,0.6321779 -0.1382889,0.3358445 -0.281517,0.6766279 -0.138289,0.3407834 -0.271639,0.6519335 -0.13335,0.3111501 -0.2420049,0.5531557 -0.2321281,0 -0.4691951,0 -0.237067,0 -0.4247443,0 -0.054328,0 -0.074083,-0.019756 Q 4.5534731,7.9196999 4.5435954,7.8357387 4.5238398,7.6776942 4.4991455,7.4455664 4.4793899,7.2134386 4.4546953,6.9368607 4.4300009,6.655344 4.4003676,6.3491328 4.3756732,6.0429217 4.3509787,5.7367105 4.3262843,5.4304993 4.2966509,5.1391048 4.2867731,5.0304492 4.2719564,4.9267325 4.2571398,4.8180769 4.2423232,4.7094214 4.2324454,4.6007658 4.2176286,4.4921102 q 0.1432278,0 0.2815169,0 0.1382889,0 0.2667,0 z"
       style="font-size:4.93889px;line-height:0.8;font-family:Recursive;-inkscape-font-specification:'Recursive, @MONO=0.47,slnt=-9.0,wght=600';font-variation-settings:'MONO' 0.47, 'slnt' -9, 'wght' 600;stroke-width:0.264583"
       id="path958" />
    <path
       d="m 7.7452958,5.8402812 q 0.00847,0 0.011289,0.00282 0.00564,0 0.00847,0.00564 0.00564,0.00282 0.00564,0.00847 0.00282,0.00564 0.00282,0.014111 0.022578,0.2709331 0.045155,0.5813774 0.022578,0.3104442 0.045155,0.654755 0.0254,0.3414886 0.0508,0.7168439 H 6.4301412 q -0.011289,0 -0.016933,-0.00847 -0.00847,-0.00847 -0.00282,-0.0254 Q 6.5373881,7.4602287 6.6474546,7.1723623 6.7575212,6.8816736 6.8534767,6.6361405 6.9494327,6.3906073 7.0284544,6.1902297 q 0.081844,-0.2003776 0.141111,-0.3499553 0.1439332,0 0.2878664,0 0.1439332,0 0.2878665,0 z M 6.8591186,7.5025688 h 0.5249329 q 0.042333,0 0.084667,0 0.045155,0 0.084667,0 Q 7.5392736,7.3304134 7.5251625,7.158258 7.5138737,6.9861025 7.4997625,6.8139471 7.4884736,6.6417917 7.4743626,6.4724585 7.4602514,6.3003031 7.4461403,6.1281476 l 0.036689,0.033867 H 7.3445404 l 0.062089,-0.031044 Q 7.3388961,6.3003031 7.2683405,6.4724585 7.2006072,6.6446139 7.132874,6.8167693 7.0651406,6.9889248 6.9945852,7.1610802 6.9268518,7.3304134 6.8591186,7.5025688 Z"
       style="font-size:2.82222px;line-height:1.25;font-family:Recursive;-inkscape-font-specification:'Recursive, @MONO=1.00,slnt=-9.0,wght=600';font-variation-settings:'MONO' 1, 'slnt' -9, 'wght' 600;stroke-width:0.0700042"
       id="path1018" />
  </g>
</svg>
